name Walk8.mot
datacolumns 19
datarows 25
range 3.56300000 3.58700000
endheader

                time	   L_ground_force_vx	   L_ground_force_vy	   L_ground_force_vz	   L_ground_force_px	   L_ground_force_py	   L_ground_force_pz	   R_ground_force_vx	   R_ground_force_vy	   R_ground_force_vz	   R_ground_force_px	   R_ground_force_py	   R_ground_force_pz	   L_ground_torque_x	   L_ground_torque_y	   L_ground_torque_z	   R_ground_torque_x	   R_ground_torque_y	   R_ground_torque_z	
          3.56300000	        -26.59464556	        685.21379444	        -45.72247166	          0.43002396	          0.00000000	          0.13915148	          0.00000000	          0.00000000	          0.00000000	          0.00000000	          0.00000000	          0.00000000	          0.00000000	          5.34773121	          0.00000000	          0.00000000	          0.00000000	          0.00000000	
          3.56400000	        -26.34385963	        684.30715736	        -45.49511121	          0.43049893	          0.00000000	          0.13916116	          0.00000000	          0.00000000	          0.00000000	          0.00000000	          0.00000000	          0.00000000	          0.00000000	          5.26810008	          0.00000000	          0.00000000	          0.00000000	          0.00000000	
          3.56500000	        -26.08868685	        683.46233369	        -45.29219708	          0.43096877	          0.00000000	          0.13914287	          0.00000000	          0.00000000	          0.00000000	          0.00000000	          0.00000000	          0.00000000	          0.00000000	          5.19739652	          0.00000000	          0.00000000	          0.00000000	          0.00000000	
          3.56600000	        -25.83230864	        682.63626388	        -45.10874292	          0.43144672	          0.00000000	          0.13908431	          0.00000000	          0.00000000	          0.00000000	          0.00000000	          0.00000000	          0.00000000	          0.00000000	          5.14037225	          0.00000000	          0.00000000	          0.00000000	          0.00000000	
          3.56700000	        -25.59057383	        681.77600322	        -44.93566483	          0.43193087	          0.00000000	          0.13899320	          0.00000000	          0.00000000	          0.00000000	          0.00000000	          0.00000000	          0.00000000	          0.00000000	          5.09831271	          0.00000000	          0.00000000	          0.00000000	          0.00000000	
          3.56800000	        -25.38234220	        680.87670557	        -44.76551423	          0.43242003	          0.00000000	          0.13890849	          0.00000000	          0.00000000	          0.00000000	          0.00000000	          0.00000000	          0.00000000	          0.00000000	          5.06869727	          0.00000000	          0.00000000	          0.00000000	          0.00000000	
          3.56900000	        -25.21240953	        679.95424837	        -44.59075191	          0.43291500	          0.00000000	          0.13887515	          0.00000000	          0.00000000	          0.00000000	          0.00000000	          0.00000000	          0.00000000	          0.00000000	          5.04444174	          0.00000000	          0.00000000	          0.00000000	          0.00000000	
          3.57000000	        -25.06530369	        679.00461337	        -44.40334186	          0.43339558	          0.00000000	          0.13890522	          0.00000000	          0.00000000	          0.00000000	          0.00000000	          0.00000000	          0.00000000	          0.00000000	          5.01737032	          0.00000000	          0.00000000	          0.00000000	          0.00000000	
          3.57100000	        -24.91742302	        678.02226503	        -44.19931572	          0.43383485	          0.00000000	          0.13896989	          0.00000000	          0.00000000	          0.00000000	          0.00000000	          0.00000000	          0.00000000	          0.00000000	          4.98436660	          0.00000000	          0.00000000	          0.00000000	          0.00000000	
          3.57200000	        -24.75089330	        677.01125315	        -43.98612350	          0.43423142	          0.00000000	          0.13902458	          0.00000000	          0.00000000	          0.00000000	          0.00000000	          0.00000000	          0.00000000	          0.00000000	          4.94826334	          0.00000000	          0.00000000	          0.00000000	          0.00000000	
          3.57300000	        -24.56020055	        675.98119567	        -43.78596639	          0.43459722	          0.00000000	          0.13904174	          0.00000000	          0.00000000	          0.00000000	          0.00000000	          0.00000000	          0.00000000	          0.00000000	          4.91261676	          0.00000000	          0.00000000	          0.00000000	          0.00000000	
          3.57400000	        -24.35416723	        674.96612919	        -43.62481973	          0.43494224	          0.00000000	          0.13902697	          0.00000000	          0.00000000	          0.00000000	          0.00000000	          0.00000000	          0.00000000	          0.00000000	          4.87812031	          0.00000000	          0.00000000	          0.00000000	          0.00000000	
          3.57500000	        -24.14904229	        674.01580807	        -43.51288222	          0.43529630	          0.00000000	          0.13900250	          0.00000000	          0.00000000	          0.00000000	          0.00000000	          0.00000000	          0.00000000	          0.00000000	          4.84232427	          0.00000000	          0.00000000	          0.00000000	          0.00000000	
          3.57600000	        -23.95587213	        673.14811440	        -43.44101752	          0.43570029	          0.00000000	          0.13897888	          0.00000000	          0.00000000	          0.00000000	          0.00000000	          0.00000000	          0.00000000	          0.00000000	          4.80114436	          0.00000000	          0.00000000	          0.00000000	          0.00000000	
          3.57700000	        -23.77274055	        672.34166159	        -43.39718826	          0.43615856	          0.00000000	          0.13895595	          0.00000000	          0.00000000	          0.00000000	          0.00000000	          0.00000000	          0.00000000	          0.00000000	          4.75408496	          0.00000000	          0.00000000	          0.00000000	          0.00000000	
          3.57800000	        -23.58655554	        671.58003266	        -43.37470747	          0.43663529	          0.00000000	          0.13894088	          0.00000000	          0.00000000	          0.00000000	          0.00000000	          0.00000000	          0.00000000	          0.00000000	          4.70666438	          0.00000000	          0.00000000	          0.00000000	          0.00000000	
          3.57900000	        -23.38410623	        670.86386302	        -43.36456155	          0.43709558	          0.00000000	          0.13894046	          0.00000000	          0.00000000	          0.00000000	          0.00000000	          0.00000000	          0.00000000	          0.00000000	          4.66479317	          0.00000000	          0.00000000	          0.00000000	          0.00000000	
          3.58000000	        -23.16275456	        670.18301390	        -43.35559927	          0.43753081	          0.00000000	          0.13894693	          0.00000000	          0.00000000	          0.00000000	          0.00000000	          0.00000000	          0.00000000	          0.00000000	          4.63028468	          0.00000000	          0.00000000	          0.00000000	          0.00000000	
          3.58100000	        -22.93255110	        669.52525417	        -43.34233190	          0.43796110	          0.00000000	          0.13895463	          0.00000000	          0.00000000	          0.00000000	          0.00000000	          0.00000000	          0.00000000	          0.00000000	          4.60234730	          0.00000000	          0.00000000	          0.00000000	          0.00000000	
          3.58200000	        -22.71279589	        668.90329897	        -43.32288435	          0.43842146	          0.00000000	          0.13898243	          0.00000000	          0.00000000	          0.00000000	          0.00000000	          0.00000000	          0.00000000	          0.00000000	          4.57951772	          0.00000000	          0.00000000	          0.00000000	          0.00000000	
          3.58300000	        -22.52157492	        668.33461649	        -43.29510165	          0.43892962	          0.00000000	          0.13906196	          0.00000000	          0.00000000	          0.00000000	          0.00000000	          0.00000000	          0.00000000	          0.00000000	          4.55863024	          0.00000000	          0.00000000	          0.00000000	          0.00000000	
          3.58400000	        -22.36036168	        667.79358498	        -43.26245394	          0.43946824	          0.00000000	          0.13919738	          0.00000000	          0.00000000	          0.00000000	          0.00000000	          0.00000000	          0.00000000	          0.00000000	          4.53407794	          0.00000000	          0.00000000	          0.00000000	          0.00000000	
          3.58500000	        -22.21013380	        667.19814149	        -43.23771627	          0.43999829	          0.00000000	          0.13934468	          0.00000000	          0.00000000	          0.00000000	          0.00000000	          0.00000000	          0.00000000	          0.00000000	          4.50066403	          0.00000000	          0.00000000	          0.00000000	          0.00000000	
          3.58600000	        -22.04502890	        666.46363448	        -43.23251740	          0.44048478	          0.00000000	          0.13944328	          0.00000000	          0.00000000	          0.00000000	          0.00000000	          0.00000000	          0.00000000	          0.00000000	          4.45577058	          0.00000000	          0.00000000	          0.00000000	          0.00000000	
          3.58700000	        -21.84923669	        665.58044425	        -43.24696571	          0.44091984	          0.00000000	          0.13946131	          0.00000000	          0.00000000	          0.00000000	          0.00000000	          0.00000000	          0.00000000	          0.00000000	          4.39903555	          0.00000000	          0.00000000	          0.00000000	          0.00000000	
